<svg viewBox="0 0 16 16" fill="none" xmlns="http://www.w3.org/2000/svg" role="presentation" class="p-Logo p-Logo--md p-TabIcon TabIcon p-TabIcon--selected TabIcon--selected"><path d="M0 8V3a3 3 0 0 1 3-3h10a3 3 0 0 1 3 3v10a3 3 0 0 1-3 3H3a3 3 0 0 1-3-3V8Z" fill="#E13134"></path><path d="M6.086 10.4c0-.015.016-.121.036-.235.157-.907.163-.939.207-1.071.094-.292.273-.547.49-.694.199-.136.542-.257 1.259-.442.45-.117.891-.24.989-.276.203-.077.298-.17.348-.339.03-.096.117-.661.117-.749a.267.267 0 0 0-.106-.196c-.07-.043-.278-.068-.727-.09-.527-.025-.857.009-1.043.103-.13.066-.227.326-.295.793l-.017.116-.376.004c-.24.002-.373-.001-.373-.011 0-.048.093-.54.123-.655.17-.636.482-.908 1.156-1.01a8.102 8.102 0 0 1 1.386-.035c.195.017.395.064.519.12a.87.87 0 0 1 .412.402c.045.092.046.099.05.327.01.404-.037.739-.152 1.083-.1.3-.217.471-.407.6-.232.154-.365.203-1.153.418-1.155.314-1.226.339-1.351.436-.095.076-.141.185-.185.435-.019.11-.038.215-.04.239l-.008.039h1.41c.776 0 1.41.004 1.41.009 0 .011-.1.613-.111.664l-.009.04h-1.78c-1.685 0-1.78-.002-1.78-.025ZM12.284 10.392c.012-.046.17-.993.17-1.013 0-.012-.336-.016-1.204-.016h-1.205l.063-.374c.06-.352.065-.375.104-.417l.57-.612c.291-.311.892-.958 1.336-1.435l.809-.87h.888l-.248 1.495-.25 1.493.341.005.342.002-.009.07c-.01.079-.093.56-.104.61l-.008.033h-.341c-.188 0-.342.003-.342.007 0 .012-.16.982-.169 1.022l-.005.032h-.745l.007-.032Zm.463-2.745c.091-.55.162-1.003.157-1.003-.006 0-.024.016-.038.035-.015.019-.422.455-.905.97-.482.514-.89.95-.907.97l-.029.031h1.553l.169-1.003Z" fill="#E4EAF0"></path><path d="M2 10.411c0-.007.108-.667.24-1.465.132-.799.307-1.847.385-2.331.08-.484.15-.897.154-.92l.01-.04h1.113c.89 0 1.151.005 1.297.022.53.062.778.22.878.557.044.151.044.264-.004.599-.083.574-.147.917-.197 1.058a1.158 1.158 0 0 1-.264.42.66.66 0 0 1-.255.184 1.688 1.688 0 0 1-.437.138c-.106.022-.23.025-1.008.025h-.887l-.067.4-.145.882-.079.484h-.366c-.212 0-.368-.005-.368-.013Zm2.777-2.48c.076-.013.164-.037.198-.051a.434.434 0 0 0 .174-.165c.037-.07.195-.92.195-1.043 0-.153-.05-.223-.184-.256-.09-.024-.76-.045-1.41-.047l-.337-.001-.008.04a238.613 238.613 0 0 1-.252 1.503l-.007.041h.746c.602 0 .773-.004.885-.021Z" fill="#fff"></path></svg>