<svg width="142" height="179" viewBox="0 0 142 179" fill="none" xmlns="http://www.w3.org/2000/svg">
<path d="M31.12 34H22.912L9.184 13.216V34H0.976V0.303999H9.184L22.912 21.184V0.303999H31.12V34ZM45.2778 6.88V13.696H56.2698V20.032H45.2778V27.424H57.7098V34H37.0698V0.303999H57.7098V6.88H45.2778ZM109.406 0.303999L100.623 34H90.6865L85.3105 11.824L79.7425 34H69.8065L61.2625 0.303999H70.0465L74.8945 24.832L80.8945 0.303999H89.9185L95.6785 24.832L100.575 0.303999H109.406ZM30.16 72.304V106H21.952V92.128H9.184V106H0.976V72.304H9.184V85.504H21.952V72.304H30.16ZM52.0214 106.336C48.8534 106.336 45.9414 105.6 43.2854 104.128C40.6614 102.656 38.5654 100.608 36.9974 97.984C35.4614 95.328 34.6934 92.352 34.6934 89.056C34.6934 85.76 35.4614 82.8 36.9974 80.176C38.5654 77.552 40.6614 75.504 43.2854 74.032C45.9414 72.56 48.8534 71.824 52.0214 71.824C55.1894 71.824 58.0854 72.56 60.7094 74.032C63.3654 75.504 65.4454 77.552 66.9494 80.176C68.4854 82.8 69.2534 85.76 69.2534 89.056C69.2534 92.352 68.4854 95.328 66.9494 97.984C65.4134 100.608 63.3334 102.656 60.7094 104.128C58.0854 105.6 55.1894 106.336 52.0214 106.336ZM52.0214 98.848C54.7094 98.848 56.8534 97.952 58.4534 96.16C60.0854 94.368 60.9014 92 60.9014 89.056C60.9014 86.08 60.0854 83.712 58.4534 81.952C56.8534 80.16 54.7094 79.264 52.0214 79.264C49.3014 79.264 47.1254 80.144 45.4934 81.904C43.8934 83.664 43.0934 86.048 43.0934 89.056C43.0934 92.032 43.8934 94.416 45.4934 96.208C47.1254 97.968 49.3014 98.848 52.0214 98.848ZM103.964 106H95.7558L82.0278 85.216V106H73.8198V72.304H82.0278L95.7558 93.184V72.304H103.964V106ZM132.281 82.96C131.674 81.84 130.794 80.992 129.642 80.416C128.522 79.808 127.194 79.504 125.658 79.504C123.002 79.504 120.874 80.384 119.273 82.144C117.674 83.872 116.874 86.192 116.874 89.104C116.874 92.208 117.706 94.64 119.37 96.4C121.066 98.128 123.386 98.992 126.33 98.992C128.346 98.992 130.042 98.48 131.418 97.456C132.826 96.432 133.85 94.96 134.49 93.04H124.074V86.992H141.93V94.624C141.322 96.672 140.282 98.576 138.81 100.336C137.37 102.096 135.53 103.52 133.29 104.608C131.05 105.696 128.522 106.24 125.706 106.24C122.378 106.24 119.402 105.52 116.778 104.08C114.186 102.608 112.154 100.576 110.682 97.984C109.242 95.392 108.521 92.432 108.521 89.104C108.521 85.776 109.242 82.816 110.682 80.224C112.154 77.6 114.186 75.568 116.778 74.128C119.37 72.656 122.33 71.92 125.658 71.92C129.69 71.92 133.082 72.896 135.834 74.848C138.618 76.8 140.458 79.504 141.354 82.96H132.281ZM20.512 178L9.184 163.12V178H0.976V144.304H9.184V159.088L20.416 144.304H30.064L17.008 160.816L30.544 178H20.512ZM50.3808 178.336C47.2128 178.336 44.3008 177.6 41.6448 176.128C39.0208 174.656 36.9248 172.608 35.3568 169.984C33.8207 167.328 33.0527 164.352 33.0527 161.056C33.0527 157.76 33.8207 154.8 35.3568 152.176C36.9248 149.552 39.0208 147.504 41.6448 146.032C44.3008 144.56 47.2128 143.824 50.3808 143.824C53.5488 143.824 56.4448 144.56 59.0688 146.032C61.7248 147.504 63.8048 149.552 65.3088 152.176C66.8448 154.8 67.6128 157.76 67.6128 161.056C67.6128 164.352 66.8448 167.328 65.3088 169.984C63.7728 172.608 61.6928 174.656 59.0688 176.128C56.4448 177.6 53.5488 178.336 50.3808 178.336ZM50.3808 170.848C53.0688 170.848 55.2128 169.952 56.8127 168.16C58.4448 166.368 59.2608 164 59.2608 161.056C59.2608 158.08 58.4448 155.712 56.8127 153.952C55.2128 152.16 53.0688 151.264 50.3808 151.264C47.6608 151.264 45.4848 152.144 43.8528 153.904C42.2528 155.664 41.4528 158.048 41.4528 161.056C41.4528 164.032 42.2528 166.416 43.8528 168.208C45.4848 169.968 47.6608 170.848 50.3808 170.848ZM102.323 178H94.1151L80.3871 157.216V178H72.1791V144.304H80.3871L94.1151 165.184V144.304H102.323V178ZM130.641 154.96C130.033 153.84 129.153 152.992 128.001 152.416C126.881 151.808 125.553 151.504 124.017 151.504C121.361 151.504 119.233 152.384 117.633 154.144C116.033 155.872 115.233 158.192 115.233 161.104C115.233 164.208 116.065 166.64 117.729 168.4C119.425 170.128 121.745 170.992 124.689 170.992C126.705 170.992 128.401 170.48 129.777 169.456C131.185 168.432 132.209 166.96 132.849 165.04H122.433V158.992H140.289V166.624C139.681 168.672 138.641 170.576 137.169 172.336C135.729 174.096 133.889 175.52 131.649 176.608C129.409 177.696 126.881 178.24 124.065 178.24C120.737 178.24 117.761 177.52 115.137 176.08C112.545 174.608 110.513 172.576 109.041 169.984C107.601 167.392 106.881 164.432 106.881 161.104C106.881 157.776 107.601 154.816 109.041 152.224C110.513 149.6 112.545 147.568 115.137 146.128C117.729 144.656 120.689 143.92 124.017 143.92C128.049 143.92 131.441 144.896 134.193 146.848C136.977 148.8 138.817 151.504 139.713 154.96H130.641Z" fill="white"/>
</svg>
