<?xml version="1.0" encoding="UTF-8"?>
<svg xmlns="http://www.w3.org/2000/svg" id="Layer_1" data-name="Layer 1" viewBox="0 0 512 512" width="512" height="512"><path d="M292.456,65.266A24.155,24.155,0,1,0,316.61,89.42,24.182,24.182,0,0,0,292.456,65.266Zm0,36.309A12.155,12.155,0,1,1,304.61,89.42,12.168,12.168,0,0,1,292.456,101.575Z"/><path d="M52,455.306C52,481.167,73.265,502,99.126,502H437.942A5.876,5.876,0,0,0,444,496.207V422h6.219c5.269,0,9.781-3.855,9.781-9.125v-93.86A10.164,10.164,0,0,0,450.219,309H443V229.032A6.049,6.049,0,0,0,436.968,223H413V15.793C413,12.48,409.961,10,406.648,10H124.914A5.754,5.754,0,0,0,119,15.793V143H98.989c-25.324,0-46.474,20.035-46.761,45.357A38.507,38.507,0,0,0,52.416,193H52ZM448,321v89H397.291a32.086,32.086,0,0,1-14.089-3.039L357.864,394.7a32.055,32.055,0,0,1,0-57.648L383.2,324.47A32.527,32.527,0,0,1,397.291,321ZM184,22H401V223H383.593q-.2-3-.593-5.954V71.451a6,6,0,0,0-6-6c-12.246,0-20.723-8.291-21.093-20.631a6,6,0,0,0-6-5.82h-115.8a6,6,0,0,0-6,5.82C227.779,56,216.278,65.451,203,65.451a6,6,0,0,0-6,6V223H184ZM292.456,137.663c-37.162,0-69.207,22.507-83.456,54.392V77.008C224.032,74.772,236.224,64.3,239.346,51h105.2A31.789,31.789,0,0,0,371,76.963V182.594A91.517,91.517,0,0,0,292.456,137.663ZM371,217.844V223H360.152c-3.082-34.288-32.258-61.982-67.7-61.982s-64.615,27.694-67.7,61.982H213.365A79.324,79.324,0,0,1,371,217.844ZM158,22h14V223H158Zm-27,0h15V223H131ZM98.467,155H119v68H98.853c-18.7,0-34.374-14.833-34.625-33.532A34.071,34.071,0,0,1,98.467,155ZM64,219.93C73,229.2,84.905,235,98.467,235H242a6,6,0,0,0,0-12h-5.2a55.982,55.982,0,0,1,111.319,0H282a6,6,0,0,0,0,12H431v74H397.291a44.621,44.621,0,0,0-19.353,4.7L352.6,326.182a44.189,44.189,0,0,0,0,79.384l25.337,12.165A44.172,44.172,0,0,0,397.291,422H432v68H99.126C79.881,490,64,474.55,64,455.306Z"/><path d="M378.259,344.443a21.5,21.5,0,1,0,21.5,21.5A21.527,21.527,0,0,0,378.259,344.443Zm0,31a9.5,9.5,0,1,1,9.5-9.5A9.514,9.514,0,0,1,378.259,375.448Z"/><path d="M102,274.058a6,6,0,0,0,6-6v-6.3a6,6,0,0,0-12,0v6.3A6,6,0,0,0,102,274.058Z"/><path d="M102,389.058a6,6,0,0,0,6-6v-96a6,6,0,0,0-12,0v96A6,6,0,0,0,102,389.058Z"/></svg>
